<svg width="167" height="16" viewBox="0 0 167 16" fill="none" xmlns="http://www.w3.org/2000/svg">
<path d="M130.034 0.0706346H124.82L120.346 6.10989H120.205V0.0706346H115.026V15.8928H120.205V9.67694L120.276 9.57099L124.856 15.9281H130.281L124.856 7.94639L130.034 0.0706346ZM145.606 6.18053C145.571 6.10989 145.571 5.19164 145.606 3.39046H152.687V0.105952H140.709V15.8221H152.687V12.4317H145.606V9.64162H151.384V6.14521H145.606V6.18053ZM160.685 0.141269H155.647V15.7868H166.92V12.2904H160.685V0.141269ZM96.4953 0.953567C95.9668 0.353173 95.0861 0.0353173 93.8178 0.0353173H83.3897V15.8928H88.0048V11.1956H92.9018V15.8928H97.4817V12.8555C97.4817 11.1603 96.9885 10.0301 95.9668 9.46503C96.2839 9.46503 96.5657 9.28845 96.8123 8.97059C97.0942 8.5821 97.2351 8.05234 97.2351 7.38131V3.84958C97.2351 2.47221 96.9885 1.51864 96.4953 0.953567ZM88.0753 6.81624V3.60236H92.6904V6.81624H88.0753ZM109.495 0.0706346L106.078 6.10989L103.013 0.0706346H98.0454L103.33 10.4186V15.8928H108.333V10.4186L113.969 0.0706346H109.495V0.0706346ZM30.9673 3.92022C30.9673 1.34206 29.8399 0.0353173 27.6204 0.0353173H19.3766C17.0514 0.0353173 15.8888 1.27142 15.8888 3.77895V12.7142C15.8888 13.6678 16.2763 14.4448 17.0514 15.0452C17.7912 15.6102 18.672 15.8575 19.6936 15.8575H27.5147C28.5364 15.8575 29.3467 15.5396 29.9808 14.9745C30.6502 14.3388 31.0025 13.4912 31.0025 12.3964V3.92022H30.9673ZM26.0703 3.92022V12.1138H20.9267V3.92022H26.0703ZM39.1407 0.105952H34.6664V15.8928H38.6122V7.59322L38.894 7.52258L45.2355 15.8928H48.9699V0.105952H44.9184V8.26425L39.1407 0.105952ZM70.7068 0.105952H65.07C62.005 8.51147 60.1026 13.8091 59.4332 15.9987H63.8017L64.7529 13.6678H71.3057L72.4683 15.9987H76.6959L70.7068 0.105952ZM67.9941 3.92022L69.8613 9.81821H66.2326L67.9941 3.92022ZM4.61514 6.14521V3.84958H12.4715V0.0353173H3.17071C1.12736 0.0353173 0.0704602 0.812298 0 2.29562V7.41663C0.0704602 9.1825 0.845523 10.0301 2.25473 10.0301H8.31431V12.1491H0.317071V15.8575H10.252C11.2032 15.8575 11.9078 15.6102 12.2953 15.1158C12.6828 14.6567 12.8942 13.8797 12.8942 12.7849V8.65274C12.8942 7.7698 12.6828 7.13409 12.2953 6.7456C11.8725 6.35711 11.2032 6.14521 10.2167 6.14521H4.61514V6.14521ZM57.6717 0H52.9156V15.8221H57.6717V0ZM137.116 0.0706346H132.219V15.8575H137.116V0.0706346Z" fill="white"/>
</svg>
