<svg width="15" height="18" viewBox="0 0 15 18" fill="none" xmlns="http://www.w3.org/2000/svg">
<path d="M14.4125 4.7226C14.2558 4.54976 14.0331 4.45113 13.7993 4.45113H10.1396V2.68454C10.1396 0.921949 8.71317 0 7.30418 0C6.57536 0 5.89296 0.23593 5.38284 0.664248C4.7955 1.15699 4.48532 1.85589 4.48532 2.68454V4.45113H0.825612C0.591748 4.45113 0.369042 4.54976 0.212388 4.7226C0.0557351 4.89544 -0.0196905 5.12648 0.00441003 5.35797L1.24648 17.2629C1.29022 17.6819 1.64458 18 2.06768 18H12.5572C12.9803 18 13.3347 17.6819 13.3784 17.2629L14.6205 5.35797C14.645 5.12648 14.5691 4.89544 14.4125 4.7226ZM5.28867 2.68454C5.28867 1.74659 5.91171 0.799763 7.30418 0.799763C8.28293 0.799763 9.33621 1.38937 9.33621 2.68454V4.45113H5.28867V2.68454ZM11.8128 16.356H2.81212L1.74143 6.09508H4.48532V7.75281H5.28867V6.09508H9.33621V7.75281H10.1396V6.09508H12.8834L11.8128 16.356Z" fill="white"/>
</svg>
