<svg width="16" height="16" viewBox="0 0 16 16" fill="none" xmlns="http://www.w3.org/2000/svg">
<path d="M15.6127 14.6176L10.6585 9.66337C11.4611 8.64635 11.9407 7.36327 11.9407 5.97035C11.9407 2.67819 9.26251 0 5.97035 0C2.67819 0 0 2.67819 0 5.97035C0 9.26251 2.67819 11.9407 5.97035 11.9407C7.28669 11.9407 8.50457 11.5123 9.4927 10.7876L14.4679 15.7628C14.6259 15.9208 14.8333 16 15.0403 16C15.2473 16 15.4547 15.9208 15.6127 15.7628C15.9291 15.4464 15.9291 14.934 15.6127 14.6176ZM1.61917 5.97035C1.61917 3.57092 3.57092 1.61917 5.97035 1.61917C8.36978 1.61917 10.3215 3.57092 10.3215 5.97035C10.3215 8.36978 8.36978 10.3215 5.97035 10.3215C3.57092 10.3215 1.61917 8.36935 1.61917 5.97035Z" fill="white"/>
</svg>
