<svg width="16" height="20" viewBox="0 0 16 20" fill="none" xmlns="http://www.w3.org/2000/svg">
<path fill-rule="evenodd" clip-rule="evenodd" d="M15.8823 18.4504C15.8823 15.7914 15.129 13.2768 13.7492 11.3691C12.9623 10.2835 12.022 9.46211 10.9873 8.94462C12.1092 8.12384 12.8446 6.79765 12.8446 5.30322C12.8446 2.81737 10.8213 0.799805 8.34116 0.799805C5.85531 0.799805 3.83775 2.82308 3.83775 5.30322C3.83775 6.7974 4.56837 8.12394 5.69433 8.94495C4.65993 9.46246 3.71983 10.2837 2.93315 11.3691C1.55327 13.2768 0.800049 15.7914 0.800049 18.4504C0.800049 18.8625 1.13735 19.1998 1.54942 19.1998H15.1329C15.545 19.1998 15.8823 18.8625 15.8823 18.4504ZM10.5818 8.97645C10.6494 8.93478 10.7159 8.89129 10.7811 8.84606C11.9037 8.06691 12.6446 6.76926 12.6446 5.30322C12.6446 4.18983 12.2197 3.17467 11.5242 2.41029C12.2197 3.17466 12.6445 4.18981 12.6445 5.30317C12.6445 6.85433 11.8151 8.21699 10.5817 8.97642C10.5817 8.97643 10.5817 8.97644 10.5818 8.97645ZM5.46116 8.49831C5.5998 8.62341 5.74663 8.7397 5.90077 8.84628C5.96606 8.89142 6.03267 8.93483 6.10052 8.97642C6.10052 8.97642 6.10053 8.97642 6.10053 8.97642C5.87251 8.83663 5.65853 8.6764 5.46116 8.49831ZM13.5871 11.4863C13.3881 11.2118 13.1794 10.9549 12.9621 10.7163C13.1794 10.9549 13.3881 11.2118 13.5871 11.4863C14.9389 13.3552 15.6822 15.8274 15.6822 18.4504C15.6822 18.752 15.4345 18.9998 15.1328 18.9998H1.54937C1.3974 18.9998 1.2591 18.9369 1.15928 18.8359C1.2591 18.9369 1.39742 18.9998 1.54942 18.9998H15.1329C15.4345 18.9998 15.6823 18.752 15.6823 18.4504C15.6823 15.8275 14.939 13.3553 13.5871 11.4863ZM5.33649 5.30322C5.33649 3.64707 6.68501 2.29855 8.34116 2.29855C9.9973 2.29855 11.3458 3.64707 11.3458 5.30322C11.3458 6.95937 9.9973 8.30788 8.34116 8.30788H8.33038C6.68028 8.30788 5.33649 6.96002 5.33649 5.30322ZM2.10957 17.901H2.10951C2.3088 13.2852 5.02872 9.61196 8.33572 9.61196H8.34111H8.34649C9.57067 9.61395 10.7132 10.1162 11.6772 10.9816C10.7132 10.1162 9.57069 9.614 8.34654 9.61201H8.33577C5.07668 9.61201 2.38777 13.1796 2.1198 17.7011C2.11587 17.7675 2.11245 17.8342 2.10957 17.901ZM4.21744 12.1454C3.15964 13.5598 2.45198 15.5127 2.32016 17.7011H14.3622C14.2304 15.5127 13.524 13.5611 12.4669 12.1474C11.3761 10.6887 9.92333 9.81458 8.34622 9.81201H8.33577C6.76166 9.81201 5.30894 10.6859 4.21744 12.1454ZM5.13649 5.30322C5.13649 3.53661 6.57455 2.09855 8.34116 2.09855C9.21756 2.09855 10.0131 2.45247 10.5923 3.02484C10.0131 2.45244 9.21754 2.0985 8.34111 2.0985C6.5745 2.0985 5.13644 3.53656 5.13644 5.30317C5.13644 6.19166 5.49883 6.99705 6.08314 7.57818C5.49886 6.99705 5.13649 6.19168 5.13649 5.30322Z" fill="white"/>
</svg>
