<svg width="16" height="18" viewBox="0 0 16 18" fill="none" xmlns="http://www.w3.org/2000/svg">
<path d="M5.78759 17.0449L5.83932 17.2692L6.0542 17.1867L6.57746 16.9857L6.57761 16.9856C8.38044 16.2913 10.5199 14.6828 12.1741 12.7933L12.1741 12.7932C14.0962 10.5971 15.1919 8.26095 15.2211 6.21043L15.2211 6.21039C15.2573 3.6249 14.1722 1.64634 12.2476 1.00377C10.5587 0.439663 8.64139 1.07442 7.28629 2.54583C6.04071 1.6932 4.52424 1.46404 3.18754 1.97584C1.85753 2.48505 0.973395 3.62405 0.831215 5.01958L0.831201 5.01972C0.575635 7.54608 1.94288 8.98852 2.99463 10.0981L3.00241 10.1063C3.35887 10.4825 3.67554 10.818 3.87209 11.1298L3.87216 11.1299C4.82761 12.6432 5.32325 14.936 5.56596 16.0637L5.56605 16.0641C5.57322 16.0971 5.58022 16.1294 5.58703 16.1608C5.61465 16.2882 5.63935 16.4021 5.66151 16.4983L5.66152 16.4983L5.78759 17.0449ZM3.67866 3.25864L3.67867 3.25863C3.99266 3.13829 4.32364 3.07961 4.66043 3.07961C5.44283 3.07961 6.2555 3.39857 6.92753 4.00984L6.92758 4.00989L7.32866 4.37447L7.49335 4.52417L7.62467 4.34448L7.94447 3.90689L7.94451 3.90682C8.9763 2.49376 10.5378 1.88098 11.8133 2.30704C12.3976 2.50228 12.893 2.91041 13.2437 3.49633C13.6554 4.18479 13.8643 5.08711 13.8486 6.1916C13.8247 7.87968 12.8782 9.90463 11.1411 11.8892C9.8448 13.3693 8.24825 14.6464 6.82208 15.3726C6.53246 14.0543 6.01936 11.9583 5.03448 10.3979C4.76412 9.9694 4.38917 9.57364 4.01064 9.17409L4.00004 9.1629L3.85485 9.30045L4.00004 9.1629C3.03316 8.14234 2.00638 7.04971 2.19781 5.15884C2.28582 4.29129 2.83596 3.58157 3.67866 3.25864Z" fill="white" stroke="white" stroke-width="0.4"/>
</svg>
